<svg width="20" height="20" viewBox="0 0 20 20" fill="none" xmlns="http://www.w3.org/2000/svg">
<path d="M4.1665 4.16675H5.83317V5.83341H4.1665V4.16675ZM7.49984 7.50008H5.83317V5.83341H7.49984V7.50008ZM9.1665 9.16675H7.49984V7.50008H9.1665V9.16675ZM10.8332 9.16675H9.1665V10.8334H7.49984V12.5001H5.83317V14.1667H4.1665V15.8334H5.83317V14.1667H7.49984V12.5001H9.1665V10.8334H10.8332V12.5001H12.4998V14.1667H14.1665V15.8334H15.8332V14.1667H14.1665V12.5001H12.4998V10.8334H10.8332V9.16675ZM12.4998 7.50008V9.16675H10.8332V7.50008H12.4998ZM14.1665 5.83341V7.50008H12.4998V5.83341H14.1665ZM14.1665 5.83341V4.16675H15.8332V5.83341H14.1665Z" fill="white"/>
</svg>
