<?xml version="1.0" encoding="UTF-8"?>
<svg version="1.1" xmlns="http://www.w3.org/2000/svg" width="58" height="58">
<path d="M0 0 C4.95 0 9.9 0 15 0 C14.67 1.98 14.34 3.96 14 6 C15.32 6 16.64 6 18 6 C17.67 4.02 17.34 2.04 17 0 C21.95 0 26.9 0 32 0 C32 1.98 32 3.96 32 6 C33.98 6 35.96 6 38 6 C38 10.62 38 15.24 38 20 C34 21 34 21 32 20 C32 21.98 32 23.96 32 26 C30.02 26 28.04 26 26 26 C26 27.98 26 29.96 26 32 C24.02 32 22.04 32 20 32 C20.185625 32.61875 20.37125 33.2375 20.5625 33.875 C21 36 21 36 20 38 C17.36 38 14.72 38 12 38 C11 35 11 35 12 32 C10.02 32 8.04 32 6 32 C6 30.02 6 28.04 6 26 C4.02 26 2.04 26 0 26 C0 24.02 0 22.04 0 20 C-0.804375 20.185625 -1.60875 20.37125 -2.4375 20.5625 C-3.283125 20.706875 -4.12875 20.85125 -5 21 C-6 20 -6 20 -6.09765625 16.83984375 C-6.08025391 14.90818359 -6.08025391 14.90818359 -6.0625 12.9375 C-6.05347656 11.64714844 -6.04445313 10.35679688 -6.03515625 9.02734375 C-6.02355469 8.02832031 -6.01195312 7.02929688 -6 6 C-4.02 6 -2.04 6 0 6 C0 4.02 0 2.04 0 0 Z " fill="#8C8D8E" transform="translate(13,10)"/>
<path d="M0 0 C4.95 0 9.9 0 15 0 C14.67 1.98 14.34 3.96 14 6 C15.32 6 16.64 6 18 6 C17.67 4.02 17.34 2.04 17 0 C21.95 0 26.9 0 32 0 C32 1.98 32 3.96 32 6 C33.98 6 35.96 6 38 6 C38 10.62 38 15.24 38 20 C34 21 34 21 32 20 C32 21.98 32 23.96 32 26 C30.02 26 28.04 26 26 26 C26 27.98 26 29.96 26 32 C24.02 32 22.04 32 20 32 C20.185625 32.61875 20.37125 33.2375 20.5625 33.875 C21 36 21 36 20 38 C17.36 38 14.72 38 12 38 C11 35 11 35 12 32 C10.02 32 8.04 32 6 32 C6 30.02 6 28.04 6 26 C4.02 26 2.04 26 0 26 C0 24.02 0 22.04 0 20 C-0.804375 20.185625 -1.60875 20.37125 -2.4375 20.5625 C-3.283125 20.706875 -4.12875 20.85125 -5 21 C-6 20 -6 20 -6.09765625 16.83984375 C-6.08025391 14.90818359 -6.08025391 14.90818359 -6.0625 12.9375 C-6.05347656 11.64714844 -6.04445313 10.35679688 -6.03515625 9.02734375 C-6.02355469 8.02832031 -6.01195312 7.02929688 -6 6 C-4.02 6 -2.04 6 0 6 C0 4.02 0 2.04 0 0 Z M2 2 C1.67 3.65 1.34 5.3 1 7 C-1.5625 8.3125 -1.5625 8.3125 -4 9 C-4 12.3 -4 15.6 -4 19 C-2.02 19 -0.04 19 2 19 C2 20.65 2 22.3 2 24 C3.98 24 5.96 24 8 24 C8 25.98 8 27.96 8 30 C9.175625 30.0928125 9.175625 30.0928125 10.375 30.1875 C11.24125 30.455625 12.1075 30.72375 13 31 C14.3125 33.5625 14.3125 33.5625 15 36 C15.99 36 16.98 36 18 36 C18.33 34.35 18.66 32.7 19 31 C20.65 30.67 22.3 30.34 24 30 C24 28.02 24 26.04 24 24 C25.65 24 27.3 24 29 24 C29 22.02 29 20.04 29 18 C30.98 18 32.96 18 35 18 C35 14.7 35 11.4 35 8 C33.68 7.67 32.36 7.34 31 7 C30.505 4.525 30.505 4.525 30 2 C26.37 2 22.74 2 19 2 C19 3.65 19 5.3 19 7 C17.02 7 15.04 7 13 7 C13 5.35 13 3.7 13 2 C9.37 2 5.74 2 2 2 Z " fill="#383838" transform="translate(13,10)"/>
<path d="M0 0 C4.95 0 9.9 0 15 0 C14.67 1.98 14.34 3.96 14 6 C15.32 6 16.64 6 18 6 C17.67 4.02 17.34 2.04 17 0 C21.95 0 26.9 0 32 0 C32 1.98 32 3.96 32 6 C31.505 4.02 31.505 4.02 31 2 C27.04 2 23.08 2 19 2 C19 3.65 19 5.3 19 7 C17.02 7 15.04 7 13 7 C13 5.35 13 3.7 13 2 C9.37 2 5.74 2 2 2 C2 3.65 2 5.3 2 7 C0.02 7.33 -1.96 7.66 -4 8 C-4.33 11.96 -4.66 15.92 -5 20 C-5.33 20 -5.66 20 -6 20 C-6 15.38 -6 10.76 -6 6 C-4.02 6 -2.04 6 0 6 C0 4.02 0 2.04 0 0 Z " fill="#1D1E1E" transform="translate(13,10)"/>
<path d="M0 0 C0.33 1.32 0.66 2.64 1 4 C3.31 4 5.62 4 8 4 C8 8.62 8 13.24 8 18 C4 19 4 19 1 18 C1 19.65 1 21.3 1 23 C-0.98 23 -2.96 23 -5 23 C-5 24.65 -5 26.3 -5 28 C-5.33 28 -5.66 28 -6 28 C-6 26.02 -6 24.04 -6 22 C-4.35 22 -2.7 22 -1 22 C-1 20.02 -1 18.04 -1 16 C0.98 16 2.96 16 5 16 C5 12.7 5 9.4 5 6 C3.35 5.67 1.7 5.34 0 5 C0 3.35 0 1.7 0 0 Z " fill="#575858" transform="translate(43,12)"/>
<path d="M0 0 C0.33 0 0.66 0 1 0 C1 1.98 1 3.96 1 6 C-0.98 6 -2.96 6 -5 6 C-5 7.98 -5 9.96 -5 12 C-6.98 12 -8.96 12 -11 12 C-10.7215625 12.928125 -10.7215625 12.928125 -10.4375 13.875 C-10 16 -10 16 -11 18 C-13.64 18 -16.28 18 -19 18 C-19.33 17.01 -19.66 16.02 -20 15 C-19.34 14.01 -18.68 13.02 -18 12 C-17.67 13.32 -17.34 14.64 -17 16 C-15.68 16.33 -14.36 16.66 -13 17 C-13.020625 16.030625 -13.04125 15.06125 -13.0625 14.0625 C-13 11 -13 11 -12 10 C-10.00041636 9.95919217 -7.99954746 9.95745644 -6 10 C-6 8.35 -6 6.7 -6 5 C-4.02 5 -2.04 5 0 5 C0 3.35 0 1.7 0 0 Z " fill="#222323" transform="translate(44,30)"/>
<path d="M0 0 C1.65 0 3.3 0 5 0 C5 2.97 5 5.94 5 9 C3.35 8.67 1.7 8.34 0 8 C0.33 7.34 0.66 6.68 1 6 C1.66 6 2.32 6 3 6 C3 4.68 3 3.36 3 2 C2.01 2 1.02 2 0 2 C0 1.34 0 0.68 0 0 Z " fill="#A1A2A4" transform="translate(43,19)"/>
<path d="M0 0 C1.98 0 3.96 0 6 0 C6 4.62 6 9.24 6 14 C4.68 14.33 3.36 14.66 2 15 C1.34 14.34 0.68 13.68 0 13 C1.32 12.67 2.64 12.34 4 12 C4 8.7 4 5.4 4 2 C2.68 1.34 1.36 0.68 0 0 Z " fill="#101010" transform="translate(45,16)"/>
<path d="M0 0 C2.97 0 5.94 0 9 0 C9 1.32 9 2.64 9 4 C8.34 4 7.68 4 7 4 C7 3.34 7 2.68 7 2 C5.35 2 3.7 2 2 2 C2 2.66 2 3.32 2 4 C1.34 4 0.68 4 0 4 C0 2.68 0 1.36 0 0 Z " fill="#A3A4A5" transform="translate(33,13)"/>
<path d="M0 0 C2.97 0 5.94 0 9 0 C8.34 1.32 7.68 2.64 7 4 C7 3.34 7 2.68 7 2 C5.35 2 3.7 2 2 2 C2 2.66 2 3.32 2 4 C1.34 4 0.68 4 0 4 C0 2.68 0 1.36 0 0 Z " fill="#A4A5A7" transform="translate(16,13)"/>
<path d="M0 0 C0.99 0 1.98 0 3 0 C2.67 2.31 2.34 4.62 2 7 C2.66 7.33 3.32 7.66 4 8 C2.68 8 1.36 8 0 8 C0 5.36 0 2.72 0 0 Z " fill="#A5A6A7" transform="translate(10,19)"/>
<path d="M0 0 C0.99 0 1.98 0 3 0 C3 0.66 3 1.32 3 2 C2.01 2 1.02 2 0 2 C0 1.34 0 0.68 0 0 Z " fill="#000000" transform="translate(33,48)"/>
<path d="M0 0 C0.99 0 1.98 0 3 0 C3 0.66 3 1.32 3 2 C2.01 2 1.02 2 0 2 C0 1.34 0 0.68 0 0 Z " fill="#000000" transform="translate(22,48)"/>
<path d="M0 0 C0.99 0 1.98 0 3 0 C3 0.66 3 1.32 3 2 C2.01 2 1.02 2 0 2 C0 1.34 0 0.68 0 0 Z " fill="#000000" transform="translate(39,42)"/>
<path d="M0 0 C0.66 0 1.32 0 2 0 C2 0.99 2 1.98 2 3 C1.34 3 0.68 3 0 3 C0 2.01 0 1.02 0 0 Z " fill="#000000" transform="translate(45,36)"/>
<path d="M0 0 C0.66 0 1.32 0 2 0 C2 0.99 2 1.98 2 3 C1.34 3 0.68 3 0 3 C0 2.01 0 1.02 0 0 Z " fill="#000000" transform="translate(11,36)"/>
<path d="M0 0 C0.66 0 1.32 0 2 0 C2 0.99 2 1.98 2 3 C1.34 3 0.68 3 0 3 C0 2.01 0 1.02 0 0 Z " fill="#000000" transform="translate(51,30)"/>
<path d="M0 0 C0.66 0 1.32 0 2 0 C2 0.99 2 1.98 2 3 C1.34 3 0.68 3 0 3 C0 2.01 0 1.02 0 0 Z " fill="#000000" transform="translate(5,30)"/>
<path d="M0 0 C0.66 0 1.32 0 2 0 C2 0.66 2 1.32 2 2 C1.01 1.67 0.02 1.34 -1 1 C-0.67 0.67 -0.34 0.34 0 0 Z " fill="#000000" transform="translate(17,42)"/>
<path d="M0 0 C0.66 0 1.32 0 2 0 C2 0.66 2 1.32 2 2 C1.34 2 0.68 2 0 2 C0 1.34 0 0.68 0 0 Z " fill="#000000" transform="translate(51,14)"/>
<path d="M0 0 C0.66 0 1.32 0 2 0 C2 0.66 2 1.32 2 2 C1.34 2 0.68 2 0 2 C0 1.34 0 0.68 0 0 Z " fill="#000000" transform="translate(5,14)"/>
<path d="M0 0 C0.66 0 1.32 0 2 0 C2 0.66 2 1.32 2 2 C1.34 2 0.68 2 0 2 C0 1.34 0 0.68 0 0 Z " fill="#000000" transform="translate(45,8)"/>
<path d="M0 0 C0.66 0 1.32 0 2 0 C2 0.66 2 1.32 2 2 C1.34 2 0.68 2 0 2 C0 1.34 0 0.68 0 0 Z " fill="#000000" transform="translate(28,8)"/>
<path d="M0 0 C0.66 0 1.32 0 2 0 C2 0.66 2 1.32 2 2 C1.34 2 0.68 2 0 2 C0 1.34 0 0.68 0 0 Z " fill="#000000" transform="translate(11,8)"/>
</svg>
