<?xml version="1.0" encoding="UTF-8"?>
<svg version="1.1" xmlns="http://www.w3.org/2000/svg" width="92" height="92">
<path d="M0 0 C2.64 0 5.28 0 8 0 C8 1.32 8 2.64 8 4 C9.65 3.67 11.3 3.34 13 3 C12.67 4.32 12.34 5.64 12 7 C12.99 7 13.98 7 15 7 C15 8.32 15 9.64 15 11 C16.65 10.67 18.3 10.34 20 10 C19.67 11.32 19.34 12.64 19 14 C20.32 13.67 21.64 13.34 23 13 C22.67 14.65 22.34 16.3 22 18 C23.32 18 24.64 18 26 18 C26 20.64 26 23.28 26 26 C24.68 26 23.36 26 22 26 C22.33 27.65 22.66 29.3 23 31 C21.68 30.67 20.36 30.34 19 30 C19.33 31.32 19.66 32.64 20 34 C18.35 33.67 16.7 33.34 15 33 C15 34.32 15 35.64 15 37 C14.01 37 13.02 37 12 37 C12.33 38.32 12.66 39.64 13 41 C11.35 40.67 9.7 40.34 8 40 C8 41.32 8 42.64 8 44 C5.36 44 2.72 44 0 44 C0 42.68 0 41.36 0 40 C-1.32 40 -2.64 40 -4 40 C-4 28.12 -4 16.24 -4 4 C-2.68 4 -1.36 4 0 4 C0 2.68 0 1.36 0 0 Z M1 5 C1 16.22 1 27.44 1 39 C2.98 39 4.96 39 7 39 C7 38.01 7 37.02 7 36 C7.99 35.67 8.98 35.34 10 35 C10.33 34.01 10.66 33.02 11 32 C11.99 32 12.98 32 14 32 C14 30.68 14 29.36 14 28 C14.99 28 15.98 28 17 28 C17.33 27.01 17.66 26.02 18 25 C18.99 25 19.98 25 21 25 C21 23.02 21 21.04 21 19 C19.68 19 18.36 19 17 19 C17 18.01 17 17.02 17 16 C16.01 15.67 15.02 15.34 14 15 C14 14.01 14 13.02 14 12 C12.68 12 11.36 12 10 12 C10 11.01 10 10.02 10 9 C9.01 8.67 8.02 8.34 7 8 C7 7.01 7 6.02 7 5 C5.02 5 3.04 5 1 5 Z " fill="#808080" transform="translate(35,24)"/>
<path d="M0 0 C1.32 0 2.64 0 4 0 C4 11.88 4 23.76 4 36 C2.68 36 1.36 36 0 36 C0 24.12 0 12.24 0 0 Z " fill="#D5D5D5" transform="translate(31,28)"/>
<path d="M0 0 C0.33 0 0.66 0 1 0 C1 2.64 1 5.28 1 8 C-0.32 8 -1.64 8 -3 8 C-2.67 9.65 -2.34 11.3 -2 13 C-3.32 12.67 -4.64 12.34 -6 12 C-5.67 13.32 -5.34 14.64 -5 16 C-6.65 15.67 -8.3 15.34 -10 15 C-10 16.32 -10 17.64 -10 19 C-10.99 19 -11.98 19 -13 19 C-12.67 20.32 -12.34 21.64 -12 23 C-12.66 23 -13.32 23 -14 23 C-14 21.35 -14 19.7 -14 18 C-13.01 18 -12.02 18 -11 18 C-11 17.01 -11 16.02 -11 15 C-12.65 14.67 -14.3 14.34 -16 14 C-15.34 13.67 -14.68 13.34 -14 13 C-13.01 13.33 -12.02 13.66 -11 14 C-11.33 12.35 -11.66 10.7 -12 9 C-10.68 9.33 -9.36 9.66 -8 10 C-7.67 8.68 -7.34 7.36 -7 6 C-6.01 6.33 -5.02 6.66 -4 7 C-4 5.02 -4 3.04 -4 1 C-3.67 1 -3.34 1 -3 1 C-3 2.98 -3 4.96 -3 7 C-2.01 7 -1.02 7 0 7 C0 4.69 0 2.38 0 0 Z " fill="#6B6B6B" transform="translate(60,42)"/>
<path d="M0 0 C1.32 0 2.64 0 4 0 C4 0.99 4 1.98 4 3 C3.01 3 2.02 3 1 3 C1 4.32 1 5.64 1 7 C0.01 7 -0.98 7 -2 7 C-2 8.32 -2 9.64 -2 11 C-4.64 11 -7.28 11 -10 11 C-10 9.68 -10 8.36 -10 7 C-7.69 7 -5.38 7 -3 7 C-3.33 5.35 -3.66 3.7 -4 2 C-2.68 2 -1.36 2 0 2 C0 1.34 0 0.68 0 0 Z " fill="#D6D6D6" transform="translate(45,57)"/>
<path d="M0 0 C0.66 0.33 1.32 0.66 2 1 C1.67 1.99 1.34 2.98 1 4 C2.32 3.67 3.64 3.34 5 3 C4.67 4.65 4.34 6.3 4 8 C4.99 8 5.98 8 7 8 C7 10.31 7 12.62 7 15 C6.01 15 5.02 15 4 15 C4 13.02 4 11.04 4 9 C2.68 9 1.36 9 0 9 C0 7.68 0 6.36 0 5 C-0.99 5 -1.98 5 -3 5 C-3 3.68 -3 2.36 -3 1 C-2.01 0.67 -1.02 0.34 0 0 Z " fill="#C9C9C9" transform="translate(53,34)"/>
<path d="M0 0 C0.66 0.33 1.32 0.66 2 1 C1.67 1.99 1.34 2.98 1 4 C1.99 4 2.98 4 4 4 C4 6.64 4 9.28 4 12 C4.99 12 5.98 12 7 12 C7 13.65 7 15.3 7 17 C6.34 16.67 5.68 16.34 5 16 C5.33 15.01 5.66 14.02 6 13 C4.68 13.33 3.36 13.66 2 14 C2.33 12.35 2.66 10.7 3 9 C1.35 9.33 -0.3 9.66 -2 10 C-1.67 8.68 -1.34 7.36 -1 6 C-2.32 5.67 -3.64 5.34 -5 5 C-3.35 5 -1.7 5 0 5 C0 3.35 0 1.7 0 0 Z " fill="#757575" transform="translate(46,27)"/>
<path d="M0 0 C2.64 0 5.28 0 8 0 C8 1.32 8 2.64 8 4 C8.99 4 9.98 4 11 4 C11 5.32 11 6.64 11 8 C9.68 8 8.36 8 7 8 C7 6.68 7 5.36 7 4 C4.69 4 2.38 4 0 4 C0 2.68 0 1.36 0 0 Z " fill="#DBDBDB" transform="translate(35,24)"/>
<path d="M0 0 C1.32 0 2.64 0 4 0 C4.33 1.65 4.66 3.3 5 5 C3.68 4.67 2.36 4.34 1 4 C1.33 5.32 1.66 6.64 2 8 C0.35 7.67 -1.3 7.34 -3 7 C-3 5.68 -3 4.36 -3 3 C-2.01 3 -1.02 3 0 3 C0 2.01 0 1.02 0 0 Z " fill="#C7C7C7" transform="translate(53,50)"/>
<path d="M0 0 C2.31 0 4.62 0 7 0 C7 0.99 7 1.98 7 3 C4.69 3 2.38 3 0 3 C0 2.01 0 1.02 0 0 Z " fill="#FEFEFE" transform="translate(35,64)"/>
<path d="M0 0 C2.31 0 4.62 0 7 0 C7 0.99 7 1.98 7 3 C4.69 3 2.38 3 0 3 C0 2.01 0 1.02 0 0 Z " fill="#FEFEFE" transform="translate(35,25)"/>
<path d="M0 0 C0.99 0 1.98 0 3 0 C3 1.98 3 3.96 3 6 C2.01 6 1.02 6 0 6 C0 4.02 0 2.04 0 0 Z " fill="#FFFFFF" transform="translate(57,43)"/>
<path d="" fill="#000000" transform="translate(0,0)"/>
<path d="" fill="#000000" transform="translate(0,0)"/>
<path d="" fill="#000000" transform="translate(0,0)"/>
<path d="" fill="#000000" transform="translate(0,0)"/>
<path d="" fill="#000000" transform="translate(0,0)"/>
<path d="" fill="#000000" transform="translate(0,0)"/>
<path d="" fill="#000000" transform="translate(0,0)"/>
<path d="" fill="#000000" transform="translate(0,0)"/>
<path d="" fill="#000000" transform="translate(0,0)"/>
<path d="" fill="#000000" transform="translate(0,0)"/>
</svg>
