<?xml version="1.0" encoding="UTF-8" standalone="no"?>
<svg
   version="1.1"
   width="92"
   height="92"
   id="svg21"
   sodipodi:docname="Play Button.svg"
   inkscape:version="1.4.2 (ebf0e940d0, 2025-05-08)"
   xmlns:inkscape="http://www.inkscape.org/namespaces/inkscape"
   xmlns:sodipodi="http://sodipodi.sourceforge.net/DTD/sodipodi-0.dtd"
   xmlns="http://www.w3.org/2000/svg"
   xmlns:svg="http://www.w3.org/2000/svg">
  <defs
     id="defs21" />
  <sodipodi:namedview
     id="namedview21"
     pagecolor="#ffffff"
     bordercolor="#000000"
     borderopacity="0.25"
     inkscape:showpageshadow="2"
     inkscape:pageopacity="0.0"
     inkscape:pagecheckerboard="0"
     inkscape:deskcolor="#d1d1d1"
     inkscape:zoom="4.5815217"
     inkscape:cx="35.032028"
     inkscape:cy="48.56465"
     inkscape:window-width="1920"
     inkscape:window-height="1052"
     inkscape:window-x="0"
     inkscape:window-y="0"
     inkscape:window-maximized="1"
     inkscape:current-layer="svg21" />
  <path
     d="m 57,24 c -2.64,0 -5.28,0 -8,0 0,1.32 0,2.64 0,4 -1.65,-0.33 -3.3,-0.66 -5,-1 0.33,1.32 0.66,2.64 1,4 -0.99,0 -1.98,0 -3,0 0,1.32 0,2.64 0,4 -1.65,-0.33 -3.3,-0.66 -5,-1 0.33,1.32 0.66,2.64 1,4 -1.32,-0.33 -2.64,-0.66 -4,-1 0.33,1.65 0.66,3.3 1,5 -1.32,0 -2.64,0 -4,0 0,2.64 0,5.28 0,8 1.32,0 2.64,0 4,0 -0.33,1.65 -0.66,3.3 -1,5 1.32,-0.33 2.64,-0.66 4,-1 -0.33,1.32 -0.66,2.64 -1,4 1.65,-0.33 3.3,-0.66 5,-1 0,1.32 0,2.64 0,4 0.99,0 1.98,0 3,0 -0.33,1.32 -0.66,2.64 -1,4 1.65,-0.33 3.3,-0.66 5,-1 0,1.32 0,2.64 0,4 2.64,0 5.28,0 8,0 0,-1.32 0,-2.64 0,-4 1.32,0 2.64,0 4,0 0,-11.88 0,-23.76 0,-36 -1.32,0 -2.64,0 -4,0 0,-1.32 0,-2.64 0,-4 z m -1,5 c 0,11.22 0,22.44 0,34 -1.98,0 -3.96,0 -6,0 0,-0.99 0,-1.98 0,-3 -0.99,-0.33 -1.98,-0.66 -3,-1 -0.33,-0.99 -0.66,-1.98 -1,-3 -0.99,0 -1.98,0 -3,0 0,-1.32 0,-2.64 0,-4 -0.99,0 -1.98,0 -3,0 -0.33,-0.99 -0.66,-1.98 -1,-3 -0.99,0 -1.98,0 -3,0 0,-1.98 0,-3.96 0,-6 1.32,0 2.64,0 4,0 0,-0.99 0,-1.98 0,-3 0.99,-0.33 1.98,-0.66 3,-1 0,-0.99 0,-1.98 0,-3 1.32,0 2.64,0 4,0 0,-0.99 0,-1.98 0,-3 0.99,-0.33 1.98,-0.66 3,-1 0,-0.99 0,-1.98 0,-3 1.98,0 3.96,0 6,0 z"
     fill="#808080"
     id="path1" />
  <path
     d="m 61,28 c -1.32,0 -2.64,0 -4,0 0,11.88 0,23.76 0,36 1.32,0 2.64,0 4,0 0,-11.88 0,-23.76 0,-36 z"
     fill="#d5d5d5"
     id="path2" />
  <path
     d="m 32,42 c -0.33,0 -0.66,0 -1,0 0,2.64 0,5.28 0,8 1.32,0 2.64,0 4,0 -0.33,1.65 -0.66,3.3 -1,5 1.32,-0.33 2.64,-0.66 4,-1 -0.33,1.32 -0.66,2.64 -1,4 1.65,-0.33 3.3,-0.66 5,-1 0,1.32 0,2.64 0,4 0.99,0 1.98,0 3,0 -0.33,1.32 -0.66,2.64 -1,4 0.66,0 1.32,0 2,0 0,-1.65 0,-3.3 0,-5 -0.99,0 -1.98,0 -3,0 0,-0.99 0,-1.98 0,-3 1.65,-0.33 3.3,-0.66 5,-1 -0.66,-0.33 -1.32,-0.66 -2,-1 -0.99,0.33 -1.98,0.66 -3,1 0.33,-1.65 0.66,-3.3 1,-5 -1.32,0.33 -2.64,0.66 -4,1 -0.33,-1.32 -0.66,-2.64 -1,-4 -0.99,0.33 -1.98,0.66 -3,1 0,-1.98 0,-3.96 0,-6 -0.33,0 -0.66,0 -1,0 0,1.98 0,3.96 0,6 -0.99,0 -1.98,0 -3,0 0,-2.31 0,-4.62 0,-7 z"
     fill="#6b6b6b"
     id="path3" />
  <path
     d="m 47,57 c -1.32,0 -2.64,0 -4,0 0,0.99 0,1.98 0,3 0.99,0 1.98,0 3,0 0,1.32 0,2.64 0,4 0.99,0 1.98,0 3,0 0,1.32 0,2.64 0,4 2.64,0 5.28,0 8,0 0,-1.32 0,-2.64 0,-4 -2.31,0 -4.62,0 -7,0 0.33,-1.65 0.66,-3.3 1,-5 -1.32,0 -2.64,0 -4,0 0,-0.66 0,-1.32 0,-2 z"
     fill="#d6d6d6"
     id="path4" />
  <path
     d="m 39,34 c -0.66,0.33 -1.32,0.66 -2,1 0.33,0.99 0.66,1.98 1,3 -1.32,-0.33 -2.64,-0.66 -4,-1 0.33,1.65 0.66,3.3 1,5 -0.99,0 -1.98,0 -3,0 0,2.31 0,4.62 0,7 0.99,0 1.98,0 3,0 0,-1.98 0,-3.96 0,-6 1.32,0 2.64,0 4,0 0,-1.32 0,-2.64 0,-4 0.99,0 1.98,0 3,0 0,-1.32 0,-2.64 0,-4 -0.99,-0.33 -1.98,-0.66 -3,-1 z"
     fill="#c9c9c9"
     id="path5" />
  <path
     d="m 46,27 c -0.66,0.33 -1.32,0.66 -2,1 0.33,0.99 0.66,1.98 1,3 -0.99,0 -1.98,0 -3,0 0,2.64 0,5.28 0,8 -0.99,0 -1.98,0 -3,0 0,1.65 0,3.3 0,5 0.66,-0.33 1.32,-0.66 2,-1 -0.33,-0.99 -0.66,-1.98 -1,-3 1.32,0.33 2.64,0.66 4,1 -0.33,-1.65 -0.66,-3.3 -1,-5 1.65,0.33 3.3,0.66 5,1 -0.33,-1.32 -0.66,-2.64 -1,-4 1.32,-0.33 2.64,-0.66 4,-1 -1.65,0 -3.3,0 -5,0 0,-1.65 0,-3.3 0,-5 z"
     fill="#757575"
     id="path6" />
  <path
     d="m 57,24 c -2.64,0 -5.28,0 -8,0 0,1.32 0,2.64 0,4 -0.99,0 -1.98,0 -3,0 0,1.32 0,2.64 0,4 1.32,0 2.64,0 4,0 0,-1.32 0,-2.64 0,-4 2.31,0 4.62,0 7,0 0,-1.32 0,-2.64 0,-4 z"
     fill="#dbdbdb"
     id="path7" />
  <path
     d="m 39,50 c -1.32,0 -2.64,0 -4,0 -0.33,1.65 -0.66,3.3 -1,5 1.32,-0.33 2.64,-0.66 4,-1 -0.33,1.32 -0.66,2.64 -1,4 1.65,-0.33 3.3,-0.66 5,-1 0,-1.32 0,-2.64 0,-4 -0.99,0 -1.98,0 -3,0 0,-0.99 0,-1.98 0,-3 z"
     fill="#c7c7c7"
     id="path8" />
  <path
     d="m 57,64 c -2.31,0 -4.62,0 -7,0 0,0.99 0,1.98 0,3 2.31,0 4.62,0 7,0 0,-0.99 0,-1.98 0,-3 z"
     fill="#fefefe"
     id="path9" />
  <path
     d="m 57,25 c -2.31,0 -4.62,0 -7,0 0,0.99 0,1.98 0,3 2.31,0 4.62,0 7,0 0,-0.99 0,-1.98 0,-3 z"
     fill="#fefefe"
     id="path10" />
  <path
     d="m 35,43 c -0.99,0 -1.98,0 -3,0 0,1.98 0,3.96 0,6 0.99,0 1.98,0 3,0 0,-1.98 0,-3.96 0,-6 z"
     fill="#ffffff"
     id="path11" />
  <path
     d=""
     fill="#000000"
     id="path12" />
  <path
     d=""
     fill="#000000"
     id="path13" />
  <path
     d=""
     fill="#000000"
     id="path14" />
  <path
     d=""
     fill="#000000"
     id="path15" />
  <path
     d=""
     fill="#000000"
     id="path16" />
  <path
     d=""
     fill="#000000"
     id="path17" />
  <path
     d=""
     fill="#000000"
     id="path18" />
  <path
     d=""
     fill="#000000"
     id="path19" />
  <path
     d=""
     fill="#000000"
     id="path20" />
  <path
     d=""
     fill="#000000"
     id="path21" />
</svg>
